<svg width="512" height="512" viewBox="0 0 512 512" fill="none" xmlns="http://www.w3.org/2000/svg">
<path d="M502 70C502 58.954 493.046 50 482 50H30C18.954 50 10 58.954 10 70V482C10 493.046 18.954 502 30 502H402.333C441.255 463.078 463.077 441.256 502 402.333V70Z" fill="#F20B0B"/>
<path d="M10 162V482C10 493.046 18.954 502 30 502H402.5C441.357 463.143 463.143 441.357 502 402.5V162H10Z" fill="white"/>
<path d="M401.591 421.591V502L502 401.591H421.591C410.545 401.591 401.591 410.545 401.591 421.591Z" fill="#F20B0B"/>
<path d="M122 47V34C122 20.745 111.255 10 98 10C84.745 10 74 20.745 74 34V83C74 96.255 84.745 107 98 107C111.255 107 122 96.255 122 83V47Z" fill="white"/>
<path d="M279.873 47V34C279.873 20.745 269.128 10 255.873 10C242.618 10 231.873 20.745 231.873 34V83C231.873 96.255 242.618 107 255.873 107C269.128 107 279.873 96.255 279.873 83V47Z" fill="white"/>
<path d="M437.746 47V34C437.746 20.745 427.001 10 413.746 10C400.491 10 389.746 20.745 389.746 34V83C389.746 96.255 400.491 107 413.746 107C427.001 107 437.746 96.255 437.746 83V47Z" fill="white"/>
<path d="M462 172C464.63 172 467.21 170.93 469.069 169.069C470.93 167.21 472 164.63 472 162C472 159.37 470.93 156.79 469.069 154.93C467.21 153.07 464.63 152 462 152C459.37 152 456.79 153.069 454.93 154.93C453.07 156.791 452 159.37 452 162C452 164.63 453.069 167.21 454.93 169.069C456.79 170.93 459.37 172 462 172Z" fill="black"/>
<path d="M196.5 443.667H196.351C190.829 443.667 186.351 448.145 186.351 453.667C186.351 459.189 190.829 463.667 196.351 463.667H196.5C202.022 463.667 206.5 459.189 206.5 453.667C206.5 448.145 202.022 443.667 196.5 443.667Z" fill="black"/>
<path d="M512 401.591V70C512 53.458 498.542 40 482 40H447.746V34C447.746 15.252 432.494 0 413.746 0C394.998 0 379.746 15.252 379.746 34V40H289.873V34C289.873 15.252 274.621 0 255.873 0C237.125 0 221.873 15.252 221.873 34V40H132V34C132 15.252 116.748 0 98 0C79.252 0 64 15.252 64 34V40H30C13.458 40 0 53.458 0 70V482C0 498.542 13.458 512 30 512H401.591C404.351 512 406.85 510.881 408.659 509.073C408.66 509.072 408.661 509.072 408.662 509.071L509.071 408.662C510.88 406.852 512 404.352 512 401.591ZM399.746 34C399.746 26.28 406.026 20 413.746 20C421.466 20 427.746 26.28 427.746 34V83C427.746 90.72 421.466 97 413.746 97C406.026 97 399.746 90.72 399.746 83V34ZM241.873 34C241.873 26.28 248.153 20 255.873 20C263.593 20 269.873 26.28 269.873 34V83C269.873 90.72 263.593 97 255.873 97C248.153 97 241.873 90.72 241.873 83V34ZM84 34C84 26.28 90.28 20 98 20C105.72 20 112 26.28 112 34V83C112 90.72 105.72 97 98 97C90.28 97 84 90.72 84 83V34ZM20 482V463.667H156.5C162.022 463.667 166.5 459.189 166.5 453.667C166.5 448.145 162.022 443.667 156.5 443.667H20V172H422C427.522 172 432 167.522 432 162C432 156.478 427.522 152 422 152H20V70C20 64.486 24.486 60 30 60H64V83C64 101.748 79.252 117 98 117C116.748 117 132 101.748 132 83V60H221.873V83C221.873 101.748 237.125 117 255.873 117C274.621 117 289.873 101.748 289.873 83V60H379.746V83C379.746 101.748 394.998 117 413.746 117C432.494 117 447.746 101.748 447.746 83V60H482C487.514 60 492 64.486 492 70V391.591H421.591C405.049 391.591 391.591 405.049 391.591 421.591V492H30C24.486 492 20 487.514 20 482ZM411.591 477.857V421.59C411.591 416.076 416.077 411.59 421.591 411.59H477.858L411.591 477.857Z" fill="black"/>
<path d="M282.86 282C288.382 282 292.86 277.522 292.86 272C292.86 266.478 288.382 262 282.86 262H239.547C228.802 262 220.06 270.742 220.06 281.487V316V350.513C220.06 361.258 228.802 370 239.547 370H273.372C284.117 370 292.859 361.258 292.859 350.513V325.488C292.859 314.743 284.117 306.001 273.372 306.001H258.66H240.06V282.001H282.86V282ZM258.66 326H272.86V350H240.06V326H258.66Z" fill="black"/>
</svg>
