<svg height="406pt" viewBox="0 -81 406.33 406" width="406pt" xmlns="http://www.w3.org/2000/svg"><path d="m101.5 61.027344c-13.535156-33.074219-94.734375-49.609375-94.734375 33.074218 0 82.6875 94.734375 115.761719 94.734375 115.761719s94.734375-33.074219 94.734375-115.761719c0-82.683593-81.199219-66.148437-94.734375-33.074218zm0 0" fill="#e9686a"/><path d="m101.492188 187.234375c-1 0-1.984376-.222656-2.886719-.652344-21.507813-10.179687-71.539063-39.566406-71.539063-92.476562 0-3.738281 3.03125-6.769531 6.765625-6.769531 3.738281 0 6.769531 3.03125 6.769531 6.769531 0 45.175781 44.609376 71.167969 63.792969 80.246093 3.378907 1.597657 4.824219 5.628907 3.226563 9.007813-1.121094 2.367187-3.507813 3.878906-6.128906 3.875zm0 0" fill="#f98c96"/><path d="m304.5 243.695312-.21875-.003906c-3.421875-.109375-6.222656-2.757812-6.519531-6.167968l-15.386719-174.320313-18.554688 120.621094c-.503906 3.285156-3.320312 5.71875-6.648437 5.738281h-.039063c-3.308593 0-6.128906-2.390625-6.675781-5.652344l-14.574219-87.449218-5.976562 26.902343c-.6875 3.09375-3.433594 5.296875-6.605469 5.300781h-121.800781c-3.738281 0-6.765625-3.03125-6.765625-6.769531 0-3.734375 3.027344-6.765625 6.765625-6.765625h116.375l12.351562-55.601562c.730469-3.140625 3.558594-5.347656 6.785157-5.296875 3.238281.089843 5.960937 2.457031 6.496093 5.652343l13.363282 80.148438 20.640625-134.195312c.585937-3.347657 3.507812-5.7773442 6.90625-5.734376 3.421875.109376 6.222656 2.757813 6.523437 6.167969l15.382813 174.320313 18.554687-120.621094c.496094-3.214844 3.210938-5.625 6.464844-5.734375 3.277344-.179687 6.1875 2.074219 6.832031 5.296875l12.347657 55.597656h48.710937c3.734375 0 6.765625 3.03125 6.765625 6.769532 0 3.734374-3.03125 6.765624-6.765625 6.765624h-54.132813c-3.171874-.003906-5.917968-2.203124-6.609374-5.300781l-5.714844-25.726562-21.589844 140.320312c-.507812 3.300781-3.347656 5.738281-6.6875 5.738281zm0 0" fill="#238892"/><path d="m121.800781 121.894531c0 11.214844-9.089843 20.300781-20.300781 20.300781s-20.300781-9.085937-20.300781-20.300781c0-11.210937 9.089843-20.300781 20.300781-20.300781s20.300781 9.089844 20.300781 20.300781zm0 0" fill="#f98c96"/><path d="m40.601562 94.101562c0-3.734374-3.03125-6.765624-6.769531-6.765624-3.734375 0-6.765625 3.03125-6.765625 6.765624 0 52.910157 50.03125 82.300782 71.539063 92.480469 3.378906 1.597657 7.410156.15625 9.011719-3.222656 1.597656-3.375.152343-7.410156-3.222657-9.007813-19.183593-9.078124-63.792969-35.070312-63.792969-80.25zm0 0"/><path d="m399.234375 115.128906h-48.710937l-12.347657-55.601562c-.644531-3.21875-3.554687-5.476563-6.832031-5.296875-3.253906.113281-5.96875 2.519531-6.464844 5.738281l-18.554687 120.621094-15.382813-174.320313c-.300781-3.410156-3.101562-6.058593-6.523437-6.1718748-3.398438-.0390624-6.320313 2.3906248-6.90625 5.7382818l-20.640625 134.195312-13.363282-80.148438c-.535156-3.195312-3.257812-5.5625-6.496093-5.652343-3.226563-.050781-6.054688 2.15625-6.785157 5.296875l-12.351562 55.601562h-16.890625c1.339844-6.929687 2.015625-13.96875 2.015625-21.027344 0-51.851562-30.019531-63.351562-42.925781-65.886718-21.660157-3.828125-43.773438 3.722656-58.574219 20-14.792969-16.28125-36.910156-23.835938-58.574219-20-12.90625 2.535156-42.925781 14.035156-42.925781 65.886718 0 86.496094 95.214844 120.734376 99.265625 122.152344 1.449219.5 3.019531.5 4.46875 0 3.460937-1.210937 73.371094-26.390625 93.714844-87.589844h25.851562c3.171875-.003906 5.917969-2.203124 6.605469-5.300781l5.976562-26.902343 14.574219 87.449218c.546875 3.261719 3.367188 5.652344 6.675781 5.652344h.039063c3.328125-.019531 6.144531-2.449219 6.648437-5.738281l18.554688-120.621094 15.386719 174.320313c.296875 3.410156 3.097656 6.058593 6.519531 6.171874h.21875c3.339844 0 6.179688-2.4375 6.6875-5.738281l21.589844-140.320312 5.714844 25.726562c.691406 3.097657 3.4375 5.296875 6.609374 5.300781h54.132813c3.734375 0 6.765625-3.03125 6.765625-6.765624 0-3.738282-3.03125-6.769532-6.765625-6.769532zm-212.15625 0h-59.472656c-3.738281-14.472656-18.5-23.175781-32.972657-19.441406-14.476562 3.738281-23.179687 18.5-19.441406 32.976562 3.738282 14.472657 18.5 23.175782 32.972656 19.441407 9.535157-2.464844 16.980469-9.910157 19.441407-19.441407h55.292969c-18.414063 46.472657-70.007813 69.390626-81.398438 73.953126-13.921875-5.578126-87.964844-38.5625-87.964844-108.511719 0-29.871094 11.363282-48.554688 32-52.613281 2.699219-.519532 5.4375-.78125 8.183594-.773438 17.457031 0 36.164062 9.792969 41.519531 22.875 1.414063 3.460938 5.371094 5.113281 8.828125 3.695312 1.679688-.6875 3.011719-2.019531 3.699219-3.695312 6.203125-15.164062 30.324219-25.945312 49.699219-22.101562 20.636718 4.058593 32.003906 22.742187 32.003906 52.609374-.003906 7.078126-.804688 14.132813-2.390625 21.027344zm-85.578125 13.535156h11.652344c-3.738282 6.472657-12.015625 8.6875-18.488282 4.953126-6.472656-3.738282-8.691406-12.015626-4.953124-18.488282 3.734374-6.472656 12.011718-8.691406 18.484374-4.953125 2.058594 1.1875 3.765626 2.894531 4.957032 4.953125h-11.652344c-3.738281 0-6.765625 3.03125-6.765625 6.765625 0 3.738281 3.027344 6.769531 6.765625 6.769531zm0 0"/></svg>